<svg id="레이어_1" data-name="레이어 1" xmlns="http://www.w3.org/2000/svg" viewBox="0 0 1077.3 83.5"><defs><style>.cls-1{fill:#fff;}.cls-2{fill:#939393;opacity:0.8;}</style></defs><path class="cls-1" d="M57.67,27.29s9.27,1.82,8.74-10.83S54.15,4.06,54.15,4.06,27-4.42,10,13.46C-1.71,25.84-.68,43,1.05,52.45a31.42,31.42,0,0,0,8.32,16.2c6.28,6.45,17.51,13.41,35.74,10.78a27,27,0,0,0,8.39-2.66c7.31-3.72,21.68-13.15,25-30.95C83.12,21.68,74.63,33,74.63,33s-.91.65-2.6,6.39-8.18,28.1-34.19,25.84C24.41,64.09,19.42,58,20.25,55.37c.69-2.16,3.89-2.45,5.13-2.76,2.12-.54,4.42,0,9.06.64C41.49,54.3,63.28,47.12,57.67,27.29Z"/><path class="cls-2" d="M59,16.73s4.26-1.19,2.4-5.83S49.34,5.07,49.34,5.07a29.94,29.94,0,0,0-13.56-.61C28.38,5.88,18.24,7,8.91,20,2.64,28.71,3,42,3.94,49.74a32.37,32.37,0,0,0,7,16.66c2.44,3,5.49,5.13,9.79,7.31,10.35,5.25,19.76,6,31,1.12A50.15,50.15,0,0,0,69.64,61.44s9.25-9.15,8.19-27.36a.05.05,0,0,0-.1,0c-.1,2.49-.54,8.6-2.51,13.17-2.53,5.88-2.94,7.81-8,12.77,0,0-8.31,8-15.61,10.55s-8.82,2.63-13.69,2.74a29.92,29.92,0,0,1-22.1-11.06C6.48,50.9,11.25,33.06,11.25,33.06s3.44-15.31,16.32-19c0,0,2.84-.51,4.56.4S48.21,20.89,59,16.73"/><circle cx="54.15" cy="15.02" r="4.96"/><path class="cls-1" d="M103.89,15h10.73V55.84h24.73l-1.22,8.8H103.89Z"/><path class="cls-1" d="M179.91,45.93c0,11.28-6.75,19.57-18.55,19.57-11.56,0-18.31-8.25-18.31-19.37,0-11.5,7-19.63,18.79-19.63C172.81,26.5,179.91,34.24,179.91,45.93ZM153.52,46c0,7.17,3.09,11.42,8.06,11.42s7.86-4.25,7.86-11.36c0-7.8-2.86-11.48-8-11.48C156.65,34.58,153.52,38.12,153.52,46Z"/><path class="cls-1" d="M219.69,52.59C218.41,58.8,214,65.5,202.93,65.5c-11.6,0-17.56-8-17.56-19.23,0-11,6.71-19.77,18.06-19.77,12.57,0,16.06,9,16.26,13.23H209.62c-.64-3-2.36-5.15-6.39-5.15-4.72,0-7.39,4.13-7.39,11.36,0,7.93,2.83,11.55,7.35,11.55,3.54,0,5.44-2.1,6.36-4.9Z"/><path class="cls-1" d="M261.27,45.93c0,11.28-6.75,19.57-18.56,19.57-11.56,0-18.3-8.25-18.3-19.37,0-11.5,7-19.63,18.79-19.63C254.17,26.5,261.27,34.24,261.27,45.93ZM234.88,46c0,7.17,3.09,11.42,8.06,11.42s7.86-4.25,7.86-11.36c0-7.8-2.87-11.48-8-11.48C238,34.58,234.88,38.12,234.88,46Z"/><path class="cls-1" d="M268.35,37c0-3.22,0-6.42-.07-9.6h9.87c.13.9.34,3,.39,4.44A11.64,11.64,0,0,1,288.9,26.5c5.36,0,8.3,2.77,9.62,5.67,2.18-3.05,5.4-5.67,11.48-5.67,6.5,0,11.81,4,11.81,13.68V64.64H311.75V41.44c0-3.37-1.22-6.66-5.45-6.66-4.38,0-6.09,2.83-6.09,8.55V64.64H290.08V41.83c0-3.86-.95-7-5.35-7-4.2,0-6.19,2.58-6.19,9V64.64H268.35Z"/><path class="cls-1" d="M365.74,45.93c0,11.28-6.75,19.57-18.56,19.57-11.56,0-18.3-8.25-18.3-19.37,0-11.5,6.95-19.63,18.79-19.63C358.64,26.5,365.74,34.24,365.74,45.93ZM339.35,46c0,7.17,3.09,11.42,8.06,11.42s7.86-4.25,7.86-11.36c0-7.8-2.87-11.48-8-11.48C342.48,34.58,339.35,38.12,339.35,46Z"/><path class="cls-1" d="M369,27.37h5.74V17.27H385v10.1h7.31v7.75H385v18.4c0,2.83.87,3.93,3.94,3.93a18.37,18.37,0,0,0,2.35-.12v7.1a23.56,23.56,0,0,1-6.93.71c-7.27,0-9.68-3.89-9.68-10.41V35.12H369Z"/><path class="cls-1" d="M432.7,45.93c0,11.28-6.75,19.57-18.56,19.57-11.56,0-18.3-8.25-18.3-19.37,0-11.5,7-19.63,18.79-19.63C425.6,26.5,432.7,34.24,432.7,45.93ZM406.31,46c0,7.17,3.09,11.42,8.06,11.42s7.86-4.25,7.86-11.36c0-7.8-2.87-11.48-8-11.48C409.44,34.58,406.31,38.12,406.31,46Z"/><path class="cls-1" d="M439.78,37.47c0-3.7,0-7-.07-10.1h10.12c.13.83.27,4.53.27,6.54,1.64-4.26,5.62-7.37,12-7.41v9.85c-7.49-.2-12,1.82-12,12V64.64H439.78Z"/><path class="cls-1" d="M486.85,64.64V15h13.3c6.2,11.15,17.67,31.25,20,36.66h.13c-.56-5.18-.55-13.8-.55-21.95V15h9.73V64.64H516.79c-5.33-9.7-18-32.8-20.49-38.53h-.14c.36,4.34.48,14.54.48,23.43v15.1Z"/><path class="cls-1" d="M547.35,48.21c0,4.66,2.34,9.21,7.48,9.21,4.3,0,5.52-1.72,6.5-4h10.33c-1.32,4.56-5.39,12-17.1,12-12.28,0-17.6-9.18-17.6-19,0-11.69,6-20,18-20,12.8,0,17.15,9.26,17.15,18.56a24,24,0,0,1-.13,3.15Zm14.39-6.34c-.07-4.34-1.8-8-6.83-8s-6.93,3.41-7.35,8Z"/><path class="cls-1" d="M611.92,53.81c0,3.59,0,7.49.08,10.83H601.88c-.14-1-.21-3-.27-4.3-2.21,3.74-5.51,5.16-10.27,5.16-7.59,0-12.44-4.62-12.44-13.86V27.37h10.31v22.2c0,4.12,1.28,7.52,5.74,7.52,4.71,0,6.66-2.51,6.66-9.89V27.37h10.31Z"/><path class="cls-1" d="M621.22,37.47c0-3.7,0-7-.07-10.1h10.12c.13.83.27,4.53.27,6.54,1.64-4.26,5.62-7.37,12-7.41v9.85c-7.49-.2-12,1.82-12,12V64.64H621.22Z"/><path class="cls-1" d="M683.62,45.93c0,11.28-6.75,19.57-18.56,19.57-11.56,0-18.3-8.25-18.3-19.37,0-11.5,7-19.63,18.79-19.63C676.52,26.5,683.62,34.24,683.62,45.93ZM657.23,46c0,7.17,3.09,11.42,8.06,11.42s7.85-4.25,7.85-11.36c0-7.8-2.86-11.48-8-11.48C660.36,34.58,657.23,38.12,657.23,46Z"/><path class="cls-1" d="M734.33,49.33c-2,9.26-9,16-21.41,16-15.74,0-23.18-11.14-23.18-25.26,0-13.61,7.68-25.81,23.7-25.81,13.22,0,19.63,7.76,20.84,16.06H723.54c-1-3.83-3.7-7.64-10.44-7.64-8.86,0-12.28,8-12.28,17,0,8.39,3,17.23,12.56,17.23,7,0,9.22-4.69,10.15-7.59Z"/><path class="cls-1" d="M741.6,12.07h10.32v9.21H741.6Zm0,15.3h10.32V64.64H741.6Z"/><path class="cls-1" d="M761.18,37.47c0-3.7,0-7-.07-10.1h10.12c.14.83.27,4.53.27,6.54,1.65-4.26,5.62-7.37,12-7.41v9.85c-7.49-.2-12,1.82-12,12V64.64H761.18Z"/><path class="cls-1" d="M821.17,52.59c-1.28,6.21-5.65,12.91-16.76,12.91-11.6,0-17.56-8-17.56-19.23,0-11,6.71-19.77,18.06-19.77,12.57,0,16.06,9,16.26,13.23H811.1c-.64-3-2.36-5.15-6.39-5.15-4.72,0-7.39,4.13-7.39,11.36,0,7.93,2.83,11.55,7.35,11.55,3.54,0,5.44-2.1,6.36-4.9Z"/><path class="cls-1" d="M860.25,53.81c0,3.59,0,7.49.07,10.83H850.21c-.14-1-.22-3-.28-4.3-2.21,3.74-5.5,5.16-10.26,5.16-7.59,0-12.44-4.62-12.44-13.86V27.37h10.31v22.2c0,4.12,1.27,7.52,5.74,7.52,4.7,0,6.65-2.51,6.65-9.89V27.37h10.32Z"/><path class="cls-1" d="M869.54,12.07h10.32v9.21H869.54Zm0,15.3h10.32V64.64H869.54Z"/><path class="cls-1" d="M885.57,27.37h5.75V17.27h10.32v10.1h7.3v7.75h-7.3v18.4c0,2.83.86,3.93,3.94,3.93a18.46,18.46,0,0,0,2.35-.12v7.1a23.66,23.66,0,0,1-6.94.71c-7.27,0-9.67-3.89-9.67-10.41V35.12h-5.75Z"/><path class="cls-1" d="M934,15h10.73V55.84H969.5l-1.23,8.8H934Z"/><path class="cls-1" d="M1006.65,55a85.77,85.77,0,0,0,.5,9.63H997.3a15.36,15.36,0,0,1-.53-3.65c-1.35,2.1-3.88,4.51-10.47,4.51-9,0-12.78-5.91-12.78-11.69,0-8.49,6.82-12.41,17.75-12.41h5.31V39.12c0-2.64-1-5.25-5.73-5.25-4.36,0-5.32,1.85-5.79,4.55h-9.81c.56-6.62,4.65-12,16-11.92,10,.06,15.42,4,15.42,12.84Zm-10.06-7.34h-4.2c-6.22,0-8.52,1.9-8.52,5.49,0,2.7,1.65,5,5.36,5,6.56,0,7.36-4.56,7.36-9.48Z"/><path class="cls-1" d="M1016,12.07h10.32V31.32c1.53-2.39,4.62-4.82,10.66-4.82,10.15,0,15.21,8.38,15.21,18.83,0,10.68-5.49,20.17-16.21,20.17-5.54,0-8-1.69-9.79-4.4a18.37,18.37,0,0,1-.4,3.54h-9.87c.08-4,.08-8.15.08-12.19Zm25.71,33.46c0-6.21-2.3-10.76-7.88-10.76-5.89,0-8,3.83-8,11.43,0,6.28,1.85,11.1,7.87,11.1C1039,57.3,1041.7,52.58,1041.7,45.53Z"/></svg>